<?xml version="1.0" encoding="UTF-8" standalone="no"?>
<!DOCTYPE svg PUBLIC "-//W3C//DTD SVG 1.1//EN" "http://www.w3.org/Graphics/SVG/1.1/DTD/svg11.dtd">
<svg width="100%" height="100%" viewBox="0 0 2551 2550" version="1.1" xmlns="http://www.w3.org/2000/svg" xmlns:xlink="http://www.w3.org/1999/xlink" xml:space="preserve" xmlns:serif="http://www.serif.com/" style="fill-rule:evenodd;clip-rule:evenodd;stroke-linejoin:round;stroke-miterlimit:2;">
    <g transform="matrix(1,0,0,1,-7549,0)">
        <g id="elmish-wpf-logo_flat" transform="matrix(0.772727,0,0,1,7549.86,0)">
            <rect x="0" y="0" width="3300" height="2550" style="fill:none;"/>
            <g transform="matrix(1.29412,0,0,1,-485.294,0)">
                <g transform="matrix(0.854164,0,0,0.854164,267.597,1.10238)">
                    <g transform="matrix(1.19883,0,0,1,-96325.8,0)">
                        <path d="M81116.1,850.968L81874.2,571.289L82198.8,743.533L81874.2,900.104L81295.9,1034.92L81116.1,850.968Z" style="fill:rgb(55,139,186);"/>
                    </g>
                    <g transform="matrix(1.19883,0,0,1,-96325.8,0)">
                        <path d="M81874.2,571.289L82283.5,702.702L82283.5,1854.3L81873.9,1985.59L81874.2,571.289Z" style="fill:rgb(48,185,219);"/>
                    </g>
                    <g transform="matrix(0.819854,0,0,1,-65584.7,0)">
                        <path d="M81379,934.917L81116.1,850.968L81116.1,1706.03L81379,1514.93L81379,934.917Z" style="fill:rgb(55,139,186);"/>
                    </g>
                    <g transform="matrix(1.19883,0,0,1,-96325.8,0)">
                        <path d="M81874.2,1985.71L81874.2,1697.23L81116.1,1706.03L81874.2,1985.71Z" style="fill:rgb(48,185,219);"/>
                    </g>
                    <g transform="matrix(1.49804,0,0,1.24959,-120873,-166.981)">
                        <path d="M81825.9,940.665L81484.2,1007.23L81484.2,1303.92L81825.9,940.665Z" style="fill:rgb(55,139,186);"/>
                    </g>
                </g>
                <g transform="matrix(5.16019,0,0,5.16019,-465875,-8985.1)">
                    <g transform="matrix(50,0,0,50,90483.1,2132.94)">
                        <path d="M0.413,0L0.086,0C0.072,0 0.065,-0.007 0.065,-0.021L0.065,-0.622C0.065,-0.636 0.072,-0.643 0.086,-0.643L0.413,-0.643C0.426,-0.643 0.433,-0.636 0.433,-0.622L0.433,-0.554C0.433,-0.54 0.426,-0.533 0.413,-0.533L0.204,-0.533C0.196,-0.533 0.192,-0.529 0.192,-0.522L0.192,-0.392C0.192,-0.385 0.196,-0.381 0.204,-0.381L0.375,-0.381C0.389,-0.381 0.396,-0.374 0.396,-0.36L0.396,-0.292C0.396,-0.278 0.389,-0.271 0.375,-0.271L0.204,-0.271C0.196,-0.271 0.192,-0.267 0.192,-0.26L0.192,-0.121C0.192,-0.114 0.196,-0.11 0.204,-0.11L0.413,-0.11C0.426,-0.11 0.433,-0.103 0.433,-0.089L0.433,-0.021C0.433,-0.007 0.426,0 0.413,0Z" style="fill:rgb(96,96,96);fill-rule:nonzero;"/>
                    </g>
                    <g transform="matrix(50,0,0,50,90507,2132.94)">
                        <path d="M0.166,0L0.081,0C0.067,0 0.06,-0.007 0.06,-0.021L0.06,-0.682C0.06,-0.696 0.067,-0.703 0.081,-0.703L0.166,-0.703C0.18,-0.703 0.187,-0.696 0.187,-0.682L0.187,-0.021C0.187,-0.007 0.18,0 0.166,0Z" style="fill:rgb(96,96,96);fill-rule:nonzero;"/>
                    </g>
                    <g transform="matrix(50,0,0,50,90519.4,2132.94)">
                        <path d="M0.161,0L0.076,0C0.062,0 0.055,-0.007 0.055,-0.021L0.055,-0.489C0.055,-0.503 0.062,-0.51 0.076,-0.51L0.161,-0.51C0.175,-0.51 0.182,-0.503 0.182,-0.489L0.182,-0.456L0.186,-0.456C0.194,-0.472 0.207,-0.485 0.227,-0.495C0.246,-0.505 0.267,-0.51 0.292,-0.51L0.32,-0.51C0.378,-0.51 0.42,-0.489 0.445,-0.446C0.468,-0.489 0.507,-0.51 0.562,-0.51L0.591,-0.51C0.642,-0.51 0.681,-0.496 0.708,-0.468C0.734,-0.44 0.747,-0.4 0.747,-0.347L0.747,-0.021C0.747,-0.007 0.74,0 0.726,0L0.641,0C0.627,0 0.62,-0.007 0.62,-0.021L0.62,-0.341C0.62,-0.362 0.616,-0.378 0.607,-0.387C0.598,-0.396 0.583,-0.4 0.562,-0.4L0.537,-0.4C0.491,-0.4 0.468,-0.374 0.468,-0.323L0.468,-0.021C0.468,-0.007 0.461,0 0.446,0L0.362,0C0.348,0 0.341,-0.007 0.341,-0.021L0.341,-0.341C0.341,-0.362 0.337,-0.378 0.328,-0.387C0.319,-0.396 0.303,-0.4 0.282,-0.4L0.251,-0.4C0.205,-0.4 0.182,-0.375 0.182,-0.324L0.182,-0.021C0.182,-0.007 0.175,0 0.161,0Z" style="fill:rgb(96,96,96);fill-rule:nonzero;"/>
                    </g>
                    <g transform="matrix(50,0,0,50,90559.3,2132.94)">
                        <path d="M0.06,-0.596L0.06,-0.683C0.06,-0.696 0.067,-0.703 0.08,-0.703L0.167,-0.703C0.18,-0.703 0.187,-0.697 0.187,-0.684L0.187,-0.596C0.187,-0.583 0.18,-0.576 0.167,-0.576L0.08,-0.576C0.067,-0.576 0.06,-0.583 0.06,-0.596ZM0.06,-0.021L0.06,-0.489C0.06,-0.503 0.067,-0.51 0.08,-0.51L0.166,-0.51C0.18,-0.51 0.187,-0.503 0.187,-0.489L0.187,-0.021C0.187,-0.012 0.186,-0.007 0.183,-0.004C0.18,-0.001 0.174,0 0.167,0L0.081,0C0.067,0 0.06,-0.007 0.06,-0.021Z" style="fill:rgb(96,96,96);fill-rule:nonzero;"/>
                    </g>
                    <g transform="matrix(50,0,0,50,90571.6,2132.94)">
                        <path d="M0.248,0L0.058,0C0.045,0 0.038,-0.007 0.038,-0.021L0.038,-0.085C0.038,-0.092 0.039,-0.098 0.042,-0.101C0.045,-0.103 0.05,-0.105 0.058,-0.105L0.225,-0.105C0.258,-0.105 0.274,-0.115 0.274,-0.135L0.274,-0.14C0.274,-0.156 0.26,-0.171 0.233,-0.186L0.134,-0.241C0.1,-0.258 0.075,-0.277 0.059,-0.297C0.043,-0.317 0.035,-0.343 0.035,-0.374C0.035,-0.421 0.047,-0.455 0.072,-0.477C0.097,-0.499 0.135,-0.51 0.188,-0.51L0.355,-0.51C0.368,-0.51 0.375,-0.503 0.375,-0.489L0.375,-0.424C0.375,-0.417 0.374,-0.411 0.371,-0.408C0.368,-0.406 0.363,-0.404 0.355,-0.404L0.216,-0.404C0.183,-0.404 0.167,-0.396 0.167,-0.379L0.167,-0.374C0.167,-0.359 0.181,-0.344 0.21,-0.329L0.311,-0.269C0.346,-0.25 0.37,-0.231 0.384,-0.212C0.398,-0.192 0.405,-0.166 0.405,-0.134C0.405,-0.045 0.353,0 0.248,0Z" style="fill:rgb(96,96,96);fill-rule:nonzero;"/>
                    </g>
                    <g transform="matrix(50,0,0,50,90593.5,2132.94)">
                        <path d="M0.161,0L0.076,0C0.062,0 0.055,-0.007 0.055,-0.021L0.055,-0.682C0.055,-0.696 0.062,-0.703 0.076,-0.703L0.161,-0.703C0.175,-0.703 0.182,-0.696 0.182,-0.682L0.182,-0.456L0.186,-0.456C0.201,-0.492 0.233,-0.51 0.284,-0.51L0.316,-0.51C0.421,-0.51 0.473,-0.456 0.473,-0.347L0.473,-0.021C0.473,-0.007 0.466,0 0.451,0L0.367,0C0.353,0 0.346,-0.007 0.346,-0.021L0.346,-0.341C0.346,-0.362 0.342,-0.378 0.333,-0.387C0.324,-0.396 0.308,-0.4 0.287,-0.4L0.251,-0.4C0.205,-0.4 0.182,-0.375 0.182,-0.324L0.182,-0.021C0.182,-0.007 0.175,0 0.161,0Z" style="fill:rgb(96,96,96);fill-rule:nonzero;"/>
                    </g>
                    <g transform="matrix(50,0,0,50,90619.7,2132.94)">
                        <path d="M0.166,-0.144L0.166,-0.021C0.166,-0.007 0.16,0 0.147,0L0.058,0C0.045,0 0.038,-0.007 0.038,-0.021L0.038,-0.143C0.038,-0.156 0.045,-0.163 0.058,-0.163L0.147,-0.163C0.16,-0.163 0.166,-0.157 0.166,-0.144Z" style="fill:rgb(96,96,96);fill-rule:nonzero;"/>
                    </g>
                    <g transform="matrix(50,0,0,50,90629.9,2132.94)">
                        <path d="M0.287,0L0.147,0C0.132,0 0.124,-0.007 0.122,-0.021L0.015,-0.622C0.013,-0.636 0.02,-0.643 0.036,-0.643L0.14,-0.643C0.155,-0.643 0.163,-0.636 0.164,-0.622L0.222,-0.129L0.229,-0.129L0.325,-0.625C0.327,-0.637 0.334,-0.643 0.346,-0.643L0.458,-0.643C0.471,-0.643 0.478,-0.637 0.48,-0.626L0.578,-0.129L0.586,-0.129L0.643,-0.621C0.644,-0.636 0.652,-0.643 0.667,-0.643L0.771,-0.643C0.787,-0.643 0.794,-0.636 0.792,-0.621L0.684,-0.021C0.682,-0.007 0.674,0 0.661,0L0.52,0C0.506,0 0.498,-0.007 0.496,-0.021L0.406,-0.49L0.402,-0.49L0.311,-0.021C0.308,-0.007 0.3,0 0.287,0Z" style="fill:rgb(96,96,96);fill-rule:nonzero;"/>
                    </g>
                    <g transform="matrix(50,0,0,50,90670.2,2132.94)">
                        <path d="M0.171,0L0.086,0C0.072,0 0.065,-0.007 0.065,-0.021L0.065,-0.622C0.065,-0.636 0.072,-0.643 0.086,-0.643L0.33,-0.643C0.382,-0.643 0.422,-0.629 0.451,-0.601C0.48,-0.572 0.494,-0.532 0.494,-0.48L0.494,-0.384C0.494,-0.332 0.48,-0.292 0.451,-0.264C0.422,-0.235 0.382,-0.221 0.33,-0.221L0.204,-0.221C0.196,-0.221 0.192,-0.217 0.192,-0.21L0.192,-0.021C0.192,-0.007 0.185,0 0.171,0ZM0.203,-0.332L0.309,-0.332C0.33,-0.332 0.345,-0.337 0.354,-0.345C0.363,-0.355 0.367,-0.369 0.367,-0.39L0.367,-0.474C0.367,-0.495 0.363,-0.51 0.354,-0.52C0.345,-0.529 0.33,-0.533 0.309,-0.533L0.203,-0.533C0.196,-0.533 0.192,-0.529 0.192,-0.522L0.192,-0.343C0.192,-0.336 0.196,-0.332 0.203,-0.332Z" style="fill:rgb(96,96,96);fill-rule:nonzero;"/>
                    </g>
                    <g transform="matrix(50,0,0,50,90696.7,2132.94)">
                        <path d="M0.171,0L0.086,0C0.072,0 0.065,-0.007 0.065,-0.021L0.065,-0.622C0.065,-0.636 0.072,-0.643 0.086,-0.643L0.405,-0.643C0.418,-0.643 0.425,-0.636 0.425,-0.622L0.425,-0.554C0.425,-0.54 0.418,-0.533 0.405,-0.533L0.204,-0.533C0.196,-0.533 0.192,-0.529 0.192,-0.522L0.192,-0.367C0.192,-0.359 0.196,-0.355 0.204,-0.355L0.375,-0.355C0.389,-0.355 0.396,-0.348 0.396,-0.334L0.396,-0.267C0.396,-0.252 0.389,-0.245 0.375,-0.245L0.204,-0.245C0.196,-0.245 0.192,-0.241 0.192,-0.234L0.192,-0.021C0.192,-0.007 0.185,0 0.171,0Z" style="fill:rgb(96,96,96);fill-rule:nonzero;"/>
                    </g>
                </g>
            </g>
        </g>
    </g>
</svg>
